<svg width="16" height="21" viewBox="0 0 16 21" fill="none" xmlns="http://www.w3.org/2000/svg">
<path d="M4.69505 13.2876C5.5223 13.2876 5.97648 12.7774 6.00081 11.8992L6.1468 4.08742C6.15491 3.97032 6.16302 3.84487 6.16302 3.75286C6.16302 2.80775 5.58719 2.24738 4.69505 2.24738C3.80292 2.24738 3.21898 2.80775 3.21898 3.75286C3.21898 3.84487 3.22709 3.97032 3.22709 4.08742L3.38118 11.8992C3.41363 12.7774 3.85969 13.2876 4.69505 13.2876ZM11.3212 13.2876C12.1484 13.2876 12.6107 12.7774 12.635 11.8992L12.781 4.08742C12.781 3.97032 12.7891 3.84487 12.7891 3.75286C12.7891 2.80775 12.2214 2.24738 11.3212 2.24738C10.429 2.24738 9.84509 2.80775 9.84509 3.75286C9.84509 3.84487 9.8532 3.97032 9.86131 4.08742L10.0154 11.8992C10.0397 12.7774 10.4858 13.2876 11.3212 13.2876ZM4.68694 18.2474C5.61963 18.2474 6.37388 17.5114 6.37388 16.583C6.37388 15.6546 5.61963 14.9102 4.68694 14.9102C3.75426 14.9102 3 15.6546 3 16.583C3 17.5114 3.75426 18.2474 4.68694 18.2474ZM11.3212 18.2474C12.2457 18.2474 13 17.5114 13 16.583C13 15.6546 12.2457 14.9102 11.3212 14.9102C10.3885 14.9102 9.62612 15.6546 9.62612 16.583C9.62612 17.5114 10.3885 18.2474 11.3212 18.2474Z" fill="#FF3B30"/>
</svg>
