<svg width="16" height="17" viewBox="0 0 16 17" fill="none" xmlns="http://www.w3.org/2000/svg">
<path d="M3.64362 14.5H12.3564C13.7582 14.5 14.5 13.7448 14.5 12.3488V4.6449C14.5 3.24881 13.7582 2.5 12.3564 2.5H3.64362C2.24807 2.5 1.5 3.24881 1.5 4.6449V12.3488C1.5 13.7512 2.24807 14.5 3.64362 14.5ZM3.70648 13.0468C3.20358 13.0468 2.93956 12.793 2.93956 12.2663V6.52961C2.93956 5.99656 3.20358 5.74907 3.70648 5.74907H12.2935C12.7901 5.74907 13.0604 5.99656 13.0604 6.52961V12.2663C13.0604 12.793 12.7901 13.0468 12.2935 13.0468H3.70648ZM6.80561 7.86859H7.17021C7.4028 7.86859 7.47824 7.79878 7.47824 7.57033V7.19593C7.47824 6.96748 7.4028 6.89767 7.17021 6.89767H6.80561C6.57302 6.89767 6.49758 6.96748 6.49758 7.19593V7.57033C6.49758 7.79878 6.57302 7.86859 6.80561 7.86859ZM8.82979 7.86859H9.20068C9.42698 7.86859 9.50242 7.79878 9.50242 7.57033V7.19593C9.50242 6.96748 9.42698 6.89767 9.20068 6.89767H8.82979C8.60348 6.89767 8.52176 6.96748 8.52176 7.19593V7.57033C8.52176 7.79878 8.60348 7.86859 8.82979 7.86859ZM10.854 7.86859H11.2249C11.4512 7.86859 11.5266 7.79878 11.5266 7.57033V7.19593C11.5266 6.96748 11.4512 6.89767 11.2249 6.89767H10.854C10.6277 6.89767 10.5522 6.96748 10.5522 7.19593V7.57033C10.5522 7.79878 10.6277 7.86859 10.854 7.86859ZM4.77515 9.88022H5.14603C5.37234 9.88022 5.45406 9.81042 5.45406 9.58197V9.20756C5.45406 8.97911 5.37234 8.90931 5.14603 8.90931H4.77515C4.54884 8.90931 4.4734 8.97911 4.4734 9.20756V9.58197C4.4734 9.81042 4.54884 9.88022 4.77515 9.88022ZM6.80561 9.88022H7.17021C7.4028 9.88022 7.47824 9.81042 7.47824 9.58197V9.20756C7.47824 8.97911 7.4028 8.90931 7.17021 8.90931H6.80561C6.57302 8.90931 6.49758 8.97911 6.49758 9.20756V9.58197C6.49758 9.81042 6.57302 9.88022 6.80561 9.88022ZM8.82979 9.88022H9.20068C9.42698 9.88022 9.50242 9.81042 9.50242 9.58197V9.20756C9.50242 8.97911 9.42698 8.90931 9.20068 8.90931H8.82979C8.60348 8.90931 8.52176 8.97911 8.52176 9.20756V9.58197C8.52176 9.81042 8.60348 9.88022 8.82979 9.88022ZM10.854 9.88022H11.2249C11.4512 9.88022 11.5266 9.81042 11.5266 9.58197V9.20756C11.5266 8.97911 11.4512 8.90931 11.2249 8.90931H10.854C10.6277 8.90931 10.5522 8.97911 10.5522 9.20756V9.58197C10.5522 9.81042 10.6277 9.88022 10.854 9.88022ZM4.77515 11.8982H5.14603C5.37234 11.8982 5.45406 11.8221 5.45406 11.5936V11.2255C5.45406 10.9971 5.37234 10.9209 5.14603 10.9209H4.77515C4.54884 10.9209 4.4734 10.9971 4.4734 11.2255V11.5936C4.4734 11.8221 4.54884 11.8982 4.77515 11.8982ZM6.80561 11.8982H7.17021C7.4028 11.8982 7.47824 11.8221 7.47824 11.5936V11.2255C7.47824 10.9971 7.4028 10.9209 7.17021 10.9209H6.80561C6.57302 10.9209 6.49758 10.9971 6.49758 11.2255V11.5936C6.49758 11.8221 6.57302 11.8982 6.80561 11.8982ZM8.82979 11.8982H9.20068C9.42698 11.8982 9.50242 11.8221 9.50242 11.5936V11.2255C9.50242 10.9971 9.42698 10.9209 9.20068 10.9209H8.82979C8.60348 10.9209 8.52176 10.9971 8.52176 11.2255V11.5936C8.52176 11.8221 8.60348 11.8982 8.82979 11.8982Z" fill="white" fill-opacity="0.4"/>
</svg>
