<svg width="17" height="21" viewBox="0 0 17 21" fill="none" xmlns="http://www.w3.org/2000/svg">
<path d="M8.87123 3.24738C8.25822 3.24738 7.84956 3.70747 7.84956 4.38666V12.3397L7.91086 13.9245L6.63036 12.3324L5.07742 10.6673C4.89352 10.4701 4.65513 10.3241 4.34863 10.3241C3.79692 10.3241 3.37463 10.7549 3.37463 11.383C3.37463 11.6678 3.48361 11.938 3.69476 12.1717L8.11519 16.9187C8.3059 17.1232 8.59197 17.2474 8.87123 17.2474C9.15049 17.2474 9.43655 17.1232 9.62727 16.9187L14.0545 12.1717C14.2657 11.938 14.3746 11.6678 14.3746 11.383C14.3746 10.7549 13.9523 10.3241 13.4006 10.3241C13.0941 10.3241 12.8557 10.4701 12.665 10.6673L11.1121 12.3324L9.8316 13.9245L9.89971 12.3397V4.38666C9.89971 3.70747 9.48423 3.24738 8.87123 3.24738Z" fill="#8E8E93"/>
</svg>
